<svg xmlns="http://www.w3.org/2000/svg" version="1.1" xmlns:xlink="http://www.w3.org/1999/xlink" xmlns:svgjs="http://svgjs.dev/svgjs" width="1000" height="366" viewBox="0 0 1000 366"><g transform="matrix(1,0,0,1,-0.6060606060606233,0.6040033512508387)"><svg viewBox="0 0 396 145" data-background-color="#ffffff" preserveAspectRatio="xMidYMid meet" height="366" width="1000" xmlns="http://www.w3.org/2000/svg" xmlns:xlink="http://www.w3.org/1999/xlink"><g id="tight-bounds" transform="matrix(1,0,0,1,0.2400000000000091,-0.23929094516768146)"><svg viewBox="0 0 395.52 145.47858189033536" height="145.47858189033536" width="395.52"><g><svg viewBox="0 0 664.5479372357189 244.43135999999998" height="145.47858189033536" width="395.52"><g transform="matrix(1,0,0,1,269.0279372357189,25.62830234430271)"><svg viewBox="0 0 395.52 193.17475531139456" height="193.17475531139456" width="395.52"><g id="textblocktransform"><svg viewBox="0 0 395.52 193.17475531139456" height="193.17475531139456" width="395.52" id="textblock"><g><svg viewBox="0 0 395.52 104.18923243243242" height="104.18923243243242" width="395.52"><g transform="matrix(1,0,0,1,0,0)"><svg width="395.52" viewBox="0.4000000059604645 -36.150001525878906 138.74000549316406 36.55000305175781" height="104.18923243243242" data-palette-color="#6b7280"><path d="M0.4-34.45L28.4-34.45 28.4-27.3 25.25-26.9Q24.6-27.4 24-29L24-29 18-29 18-5.8Q20-5 20.75-4.15L20.75-4.15 20.25 0 8.55 0 8.05-4.15Q8.7-5 10.8-5.8L10.8-5.8 10.8-29 4.8-29Q4.2-27.4 3.55-26.9L3.55-26.9 0.4-27.3 0.4-34.45ZM45.1-18.85L45.1-18.85Q41.3-18.85 39.85-17.4L39.85-17.4 39.85-5.95Q43.9-5.2 45.4-3.85L45.4-3.85 44.9 0 30.6 0 30.1-3.85Q30.8-4.8 32.85-5.55L32.85-5.55 32.85-19.45Q31.1-20.05 30.1-21.15L30.1-21.15 30.6-25Q33.35-25.6 35.55-25.6 37.75-25.6 39.2-25.5L39.2-25.5 39.2-22.35Q40.35-23.7 42.15-24.58 43.95-25.45 45.42-25.45 46.9-25.45 47.45-25.2L47.45-25.2 47.3-18.7Q46.3-18.85 45.1-18.85ZM50.5-21.3L50.5-21.3Q50.5-22.05 50.55-22.9L50.55-22.9Q55.2-25.4 60.55-25.4 65.9-25.4 68.22-23.38 70.55-21.35 70.55-16.65L70.55-16.65 70.55-6Q72.3-5.65 73.3-5.15L73.3-5.15 73.3-0.8Q70.75 0.4 66 0.4L66 0.4Q65.5-0.9 65.15-2.75L65.15-2.75Q63 0.4 57.35 0.4L57.35 0.4Q54 0.4 51.62-1.55 49.25-3.5 49.25-6.85 49.25-10.2 51.47-12.13 53.7-14.05 58.1-14.05L58.1-14.05 63.55-14.05 63.55-16.45Q63.55-20.35 59.4-20.35L59.4-20.35Q57.85-20.35 56.85-20.05L56.85-20.05Q56.75-17.95 56.25-16.8L56.25-16.8 51.35-16.8Q50.5-18.55 50.5-21.3ZM59.5-4.7L59.5-4.7Q62.05-4.7 63.55-6.2L63.55-6.2 63.55-10.3 60.05-10.3Q56.45-10.3 56.45-7.55L56.45-7.55Q56.45-6.3 57.22-5.5 58-4.7 59.5-4.7ZM98.14-19.2L89.89 0.3 84.39 0.3 76.19-19.2Q73.69-20 72.84-21.15L72.84-21.15 73.34-25 84.84-25 85.34-21.15Q84.69-20.35 83.19-19.7L83.19-19.7 85.89-12.15Q86.79-9.8 87.19-7.5L87.19-7.5 87.29-6.8 87.99-6.8Q88.39-9.3 89.39-12.05L89.39-12.05 92.04-19.45Q90.19-20.15 89.44-21.15L89.44-21.15 89.94-25 100.94-25 101.44-21.15Q100.54-20 98.14-19.2L98.14-19.2ZM115.09 0.4L115.09 0.4Q109.09 0.4 106.07-2.8 103.04-6 103.04-12.1L103.04-12.1Q103.04-15.8 104.09-18.48 105.14-21.15 106.94-22.6L106.94-22.6Q110.44-25.4 115.09-25.4 119.74-25.4 122.22-23.03 124.69-20.65 124.69-14.5L124.69-14.5Q124.69-10.9 121.14-10.9L121.14-10.9 110.29-10.9Q110.49-7.75 111.92-6.45 113.34-5.15 116.44-5.15L116.44-5.15Q118.14-5.15 119.69-5.55 121.24-5.95 121.94-6.35L121.94-6.35 122.64-6.75 124.14-2.75Q123.84-2.4 123.27-1.88 122.69-1.35 120.37-0.48 118.04 0.4 115.09 0.4ZM110.34-15.05L118.24-15.35Q118.34-16.05 118.34-17.05 118.34-18.05 117.54-19.18 116.74-20.3 114.77-20.3 112.79-20.3 111.74-19.1 110.69-17.9 110.34-15.05L110.34-15.05ZM126.64-31.65L127.14-35.5Q129.94-36.15 132.34-36.15 134.74-36.15 136.39-36L136.39-36 136.39-5.55Q138.34-4.8 139.14-3.85L139.14-3.85 138.64 0 127.14 0 126.64-3.85Q127.34-4.8 129.39-5.55L129.39-5.55 129.39-29.95Q127.64-30.55 126.64-31.65L126.64-31.65Z" opacity="1" transform="matrix(1,0,0,1,0,0)" fill="#6b7280" class="wordmark-text-0" data-fill-palette-color="primary" id="text-0"></path></svg></g></svg></g><g transform="matrix(1,0,0,1,0,128.78580966815133)"><svg viewBox="0 0 96.53864172936886 64.38894564324323" height="64.38894564324323" width="96.53864172936886"><g transform="matrix(1,0,0,1,0,0)"><svg width="96.53864172936886" viewBox="1.5 -35.45000076293945 53.900001525878906 35.95000076293945" height="64.38894564324323" data-palette-color="#97978d"><path d="M21-10.45L21-10.45 21.1-17.25Q21.1-17.95 22.55-18.18 24-18.4 24.95-18.4L24.95-18.4 26.9-18.25Q28.8-17.95 28.8-17.2L28.8-17.2 28.6-1.55Q27.6-0.85 24.58-0.18 21.55 0.5 17.65 0.5L17.65 0.5Q10.4 0.5 5.95-4.2 1.5-8.9 1.5-18L1.5-18Q1.5-25.75 5.85-30.6 10.2-35.45 17.9-35.45L17.9-35.45Q21.4-35.45 24.23-34.77 27.05-34.1 28.1-32.95L28.1-32.95Q28.15-32.55 28.15-31.45 28.15-30.35 27.4-28.33 26.65-26.3 25.7-25.3 24.75-24.3 24.33-24.3 23.9-24.3 23.43-24.68 22.95-25.05 21.55-25.48 20.15-25.9 18.85-25.9L18.85-25.9Q15.75-25.9 13.83-23.9 11.9-21.9 11.9-17.7 11.9-13.5 13.88-11.33 15.85-9.15 18.43-9.15 21-9.15 21-10.45ZM35.47-2.95Q32.35-6.4 32.35-12.5 32.35-18.6 35.47-22.05 38.6-25.5 43.9-25.5 49.2-25.5 52.3-22.05 55.4-18.6 55.4-12.5 55.4-6.4 52.3-2.95 49.2 0.5 43.9 0.5 38.6 0.5 35.47-2.95ZM43.92-17.15Q41.1-17.15 41.1-12.55 41.1-7.95 43.92-7.95 46.75-7.95 46.75-12.55 46.75-17.15 43.92-17.15Z" opacity="1" transform="matrix(1,0,0,1,0,0)" fill="#97978d" class="slogan-text-1" data-fill-palette-color="secondary" id="text-1"></path></svg></g></svg></g></svg></g></svg></g><g><svg viewBox="0 0 244.43135999999998 244.43135999999998" height="244.43135999999998" width="244.43135999999998"><g><svg xmlns="http://www.w3.org/2000/svg" xmlns:xlink="http://www.w3.org/1999/xlink" version="1.1" x="0" y="0" viewBox="1 1 126 126" style="enable-background:new 0 0 128 128;" xml:space="preserve" height="244.43135999999998" width="244.43135999999998" class="icon-icon-0" data-fill-palette-color="accent" id="icon-0"><g fill="#97978d" data-fill-palette-color="accent"><path d="M110.937 52.703c-7.691-4.44-16.653-5.62-25.231-3.321-8.267 2.215-15.218 7.411-19.687 14.668 9.403 17.409 3.288 39.323-13.954 49.278-5.771 3.331-12.084 4.915-18.313 4.915-0.632 0-1.264-0.028-1.894-0.062C41.271 123.777 52.257 127 64 127c31.814 0 58.104-23.586 62.378-54.223C124.154 64.602 118.837 57.265 110.937 52.703z" fill="#97978d" data-fill-palette-color="accent"></path><path d="M64 1c-8.339 0-16.291 1.635-23.575 4.577C34.448 11.591 30.749 19.872 30.749 29c0 18.01 14.396 32.711 32.285 33.226 4.938-8.026 12.624-13.774 21.766-16.224 9.482-2.54 19.386-1.237 27.887 3.671 6.348 3.666 11.181 8.957 14.295 15.043C126.983 64.476 127 64.24 127 64 127 29.206 98.795 1 64 1z" fill="#97978d" data-fill-palette-color="accent"></path><path d="M50.314 110.297c15.598-9.006 21.13-28.825 12.632-44.574C43.168 65.162 27.249 48.91 27.249 29c0-7.337 2.17-14.175 5.891-19.918C13.961 19.882 1 40.421 1 64c0 20.167 9.486 38.105 24.228 49.636C33.414 115.793 42.419 114.854 50.314 110.297z" fill="#97978d" data-fill-palette-color="accent"></path></g></svg></g></svg></g></svg></g><defs></defs></svg><rect width="395.52" height="145.47858189033536" fill="none" stroke="none" visibility="hidden"></rect></g></svg></g></svg>